<?xml version="1.0" standalone="no"?>
<!DOCTYPE svg PUBLIC "-//W3C//DTD SVG 20010904//EN"
 "http://www.w3.org/TR/2001/REC-SVG-20010904/DTD/svg10.dtd">
<svg version="1.0" xmlns="http://www.w3.org/2000/svg"
 width="500.000000pt" height="500.000000pt" viewBox="0 0 500.000000 500.000000"
 preserveAspectRatio="xMidYMid meet">
<metadata>
Created by potrace 1.14, written by Peter Selinger 2001-2017
</metadata>
<g transform="translate(0.000000,500.000000) scale(0.100000,-0.100000)"
fill="#000000" stroke="none">
<path d="M550 4756 l0 -95 -27 -4 -28 -4 28 -2 27 -1 0 -249 0 -250 -27 -4
-28 -4 28 -2 27 -1 0 -249 0 -250 -27 -4 -28 -4 28 -2 27 -1 0 -249 0 -250
-27 -4 -28 -4 28 -2 27 -1 0 -244 0 -245 -27 -4 -28 -4 28 -2 27 -1 0 -249 0
-250 -27 -4 -28 -4 28 -2 27 -1 0 -249 0 -250 -27 -4 -28 -4 28 -2 27 -1 0
-249 0 -250 -27 -4 -28 -4 28 -2 27 -1 0 -249 0 -250 -27 -4 -28 -4 28 -2 27
-1 0 -100 0 -100 99 0 100 0 4 -27 4 -28 2 28 1 27 239 0 240 0 4 -27 4 -28 2
28 1 27 239 0 240 0 4 -28 4 -27 2 28 1 27 234 0 235 0 4 -28 4 -27 2 28 1 27
239 0 240 0 4 -27 4 -28 2 28 1 27 239 0 240 0 4 -27 4 -28 2 28 1 27 239 0
240 0 4 -27 4 -28 2 28 1 27 239 0 240 0 4 -27 4 -28 2 28 1 27 234 0 235 0 4
-28 4 -27 2 28 1 27 100 0 100 0 0 2235 0 2235 -2155 0 -2155 0 0 -94z m2140
69 c0 -8 5 -15 10 -15 6 0 10 7 10 15 0 13 126 15 1070 15 l1070 0 0 -2225 0
-2225 -1070 0 -1070 0 0 40 c0 22 -4 40 -10 40 -5 0 -10 -18 -10 -40 l0 -40
-1065 0 -1065 0 0 2225 0 2225 1065 0 c940 0 1065 -2 1065 -15z"/>
<path d="M2690 4735 c0 -19 5 -35 10 -35 6 0 10 16 10 35 0 19 -4 35 -10 35
-5 0 -10 -16 -10 -35z"/>
<path d="M1553 4675 c0 -33 2 -45 4 -27 2 18 2 45 0 60 -2 15 -4 0 -4 -33z"/>
<path d="M1102 4708 c-15 -15 -15 -61 0 -76 13 -13 54 -16 62 -4 2 4 -7 8 -21
7 -33 0 -52 28 -37 53 6 9 23 17 37 17 14 -1 23 3 21 7 -8 12 -49 9 -62 -4z"/>
<path d="M1348 4708 c-2 -7 -2 -29 2 -48 3 -25 11 -35 25 -37 11 -2 14 0 8 3
-16 7 -17 64 -2 64 6 0 4 7 -5 15 -18 18 -23 19 -28 3z"/>
<path d="M1184 4686 c-3 -8 -4 -25 -2 -38 2 -17 9 -23 28 -23 22 0 25 4 25 35
0 29 -4 36 -23 38 -13 2 -24 -3 -28 -12z m41 -26 c0 -13 -6 -25 -12 -27 -16
-6 -27 21 -19 43 9 23 31 11 31 -16z"/>
<path d="M1260 4659 c0 -21 5 -39 10 -39 6 0 10 13 10 29 0 28 15 49 27 38 3
-4 9 -21 14 -39 8 -33 8 -33 6 7 -2 38 -4 40 -34 42 -32 1 -33 0 -33 -38z"/>
<path d="M1411 4655 c2 -33 3 -35 6 -10 2 17 11 35 20 42 13 10 13 12 -6 10
-18 -1 -21 -7 -20 -42z"/>
<path d="M1464 4686 c-11 -29 1 -61 23 -64 29 -4 48 30 33 58 -12 23 -48 27
-56 6z m41 -26 c0 -27 -22 -39 -31 -16 -8 22 3 49 19 43 6 -2 12 -14 12 -27z"/>
<path d="M670 4660 c0 -6 57 -10 150 -10 93 0 150 4 150 10 0 6 -57 10 -150
10 -93 0 -150 -4 -150 -10z"/>
<path d="M2690 4625 c0 -19 5 -35 10 -35 6 0 10 16 10 35 0 19 -4 35 -10 35
-5 0 -10 -16 -10 -35z"/>
<path d="M2690 4515 c0 -19 5 -35 10 -35 6 0 10 16 10 35 0 19 -4 35 -10 35
-5 0 -10 -16 -10 -35z"/>
<path d="M1100 4485 c-6 -14 -14 -36 -20 -50 -6 -16 -6 -25 0 -25 6 0 10 7 10
15 0 21 46 19 54 -1 4 -9 9 -15 11 -12 7 7 -28 98 -37 98 -5 0 -13 -11 -18
-25z m30 -21 c0 -8 -7 -14 -15 -14 -17 0 -18 2 -9 24 7 18 24 12 24 -10z"/>
<path d="M1223 4503 c13 -3 17 -15 17 -49 0 -24 5 -44 10 -44 6 0 10 20 10 44
0 34 4 46 18 49 9 3 -3 5 -28 5 -25 0 -37 -2 -27 -5z"/>
<path d="M1508 4498 c-2 -7 -2 -29 2 -48 3 -25 11 -35 25 -37 11 -2 14 0 8 3
-16 7 -17 64 -2 64 6 0 4 7 -5 15 -18 18 -23 19 -28 3z"/>
<path d="M1870 4483 c0 -46 11 -73 29 -72 10 0 11 2 4 6 -16 6 -17 63 -2 63 6
0 4 7 -5 15 -21 21 -26 19 -26 -12z"/>
<path d="M1291 4445 c2 -33 3 -35 6 -10 2 17 11 35 20 42 13 10 13 12 -6 10
-18 -1 -21 -7 -20 -42z"/>
<path d="M1344 4476 c-3 -8 -4 -25 -2 -38 2 -18 10 -23 33 -25 27 -2 28 -1 6
5 -37 11 -38 32 -2 32 33 0 39 8 19 28 -16 16 -47 15 -54 -2z m46 -6 c0 -5 -9
-10 -21 -10 -11 0 -17 5 -14 10 3 6 13 10 21 10 8 0 14 -4 14 -10z"/>
<path d="M1448 4483 c12 -2 22 -8 22 -11 0 -4 -10 -12 -22 -17 -34 -15 -29
-39 10 -43 29 -3 32 -1 32 25 0 35 -16 54 -44 52 -19 -2 -19 -2 2 -6z m20 -45
c-6 -18 -28 -21 -28 -4 0 9 7 16 16 16 9 0 14 -5 12 -12z"/>
<path d="M1571 4446 l2 -41 6 35 c4 22 12 35 21 35 9 0 17 -13 21 -35 l6 -35
4 34 c6 48 29 53 29 7 0 -20 5 -36 10 -36 12 0 13 50 2 66 -4 6 -28 11 -54 11
l-48 -1 1 -40z"/>
<path d="M1712 4478 c-29 -29 -8 -70 36 -67 10 1 7 4 -7 8 -37 10 -38 31 -2
31 17 0 31 4 31 8 0 12 -22 32 -35 32 -6 0 -16 -5 -23 -12z m38 -8 c0 -5 -9
-10 -21 -10 -11 0 -17 5 -14 10 3 6 13 10 21 10 8 0 14 -4 14 -10z"/>
<path d="M1791 4446 l2 -41 6 35 c4 22 12 35 21 35 9 0 18 -13 22 -35 l6 -35
-1 40 c-2 36 -5 40 -29 41 -26 1 -28 -1 -27 -40z"/>
<path d="M2690 4400 c0 -22 5 -40 10 -40 6 0 10 18 10 40 0 22 -4 40 -10 40
-5 0 -10 -18 -10 -40z"/>
<path d="M2690 4290 c0 -22 5 -40 10 -40 6 0 10 18 10 40 0 22 -4 40 -10 40
-5 0 -10 -18 -10 -40z"/>
<path d="M1400 4255 c0 -30 5 -55 10 -55 6 0 10 13 10 29 0 28 15 49 27 38 3
-4 9 -21 14 -39 8 -33 8 -33 6 7 -2 35 -5 40 -24 39 -16 0 -23 5 -23 18 0 10
-4 18 -10 18 -5 0 -10 -25 -10 -55z"/>
<path d="M1100 4275 c-6 -14 -14 -36 -20 -50 -6 -16 -6 -25 0 -25 6 0 10 7 10
15 0 21 46 19 54 -1 4 -9 9 -15 11 -12 7 7 -28 98 -37 98 -5 0 -13 -11 -18
-25z m30 -21 c0 -8 -7 -14 -15 -14 -17 0 -18 2 -9 24 7 18 24 12 24 -10z"/>
<path d="M1348 4288 c-2 -7 -2 -29 2 -48 3 -25 11 -36 25 -38 18 -2 18 -2 3 8
-10 6 -18 22 -18 35 0 17 6 25 18 26 13 0 14 2 2 6 -8 3 -18 10 -21 15 -3 5
-8 4 -11 -4z"/>
<path d="M1683 4293 c13 -3 17 -15 17 -49 0 -24 5 -44 10 -44 6 0 10 20 10 44
0 34 4 46 18 49 9 3 -3 5 -28 5 -25 0 -37 -2 -27 -5z"/>
<path d="M1968 4288 c-2 -7 -2 -29 2 -48 3 -25 11 -36 25 -38 18 -2 18 -2 3 8
-10 6 -18 22 -18 35 0 17 6 25 18 26 13 0 14 2 2 6 -8 3 -18 10 -21 15 -3 5
-8 4 -11 -4z"/>
<path d="M2328 4288 c-2 -7 -2 -29 2 -48 3 -25 11 -35 25 -37 11 -2 14 0 8 3
-16 7 -17 64 -2 64 6 0 4 7 -5 15 -18 18 -23 19 -28 3z"/>
<path d="M1181 4236 l2 -41 6 35 c4 22 12 35 21 35 9 0 18 -13 22 -35 l6 -35
-1 40 c-2 36 -5 40 -29 41 -26 1 -28 -1 -27 -40z"/>
<path d="M1270 4265 c-26 -31 13 -82 44 -56 19 16 21 42 4 59 -16 16 -33 15
-48 -3z m44 -10 c7 -20 -3 -45 -19 -45 -16 0 -26 25 -19 45 4 8 12 15 19 15 7
0 15 -7 19 -15z"/>
<path d="M1502 4268 c-29 -29 -8 -70 36 -67 10 1 7 4 -7 8 -37 10 -38 31 -2
31 17 0 31 4 31 8 0 12 -22 32 -35 32 -6 0 -16 -5 -23 -12z m38 -8 c0 -5 -9
-10 -21 -10 -11 0 -17 5 -14 10 3 6 13 10 21 10 8 0 14 -4 14 -10z"/>
<path d="M1581 4235 c2 -33 3 -35 6 -10 2 17 11 35 20 42 13 10 13 12 -6 10
-18 -1 -21 -7 -20 -42z"/>
<path d="M1740 4239 c0 -22 5 -39 10 -39 6 0 10 13 10 30 0 17 7 33 17 38 13
8 11 10 -10 10 -25 0 -27 -4 -27 -39z"/>
<path d="M1800 4261 c-15 -29 3 -61 35 -61 14 0 25 4 25 8 0 5 -10 8 -21 8
-12 -1 -24 5 -26 12 -3 7 5 12 22 12 20 0 26 4 23 18 -5 25 -44 27 -58 3z m45
-1 c3 -5 -3 -10 -15 -10 -12 0 -18 5 -15 10 3 6 10 10 15 10 5 0 12 -4 15 -10z"/>
<path d="M1910 4269 l25 -12 -25 -6 c-36 -10 -34 -46 3 -47 26 -1 28 1 25 35
-3 30 -7 36 -28 38 l-25 3 25 -11z m20 -38 c0 -14 -18 -23 -30 -16 -6 4 -8 11
-5 16 8 12 35 12 35 0z"/>
<path d="M2020 4239 c0 -47 17 -52 22 -7 4 46 28 49 28 4 0 -44 18 -48 22 -4
4 46 28 49 28 4 0 -20 5 -36 10 -36 13 0 13 40 0 60 -6 10 -27 15 -60 16 l-50
2 0 -39z"/>
<path d="M2164 4266 c-12 -32 0 -61 29 -64 15 -2 27 1 27 6 0 5 -10 8 -21 8
-12 -1 -24 5 -26 12 -3 8 6 12 27 12 28 0 30 2 20 20 -12 23 -48 27 -56 6z
m41 -6 c3 -5 -3 -10 -15 -10 -12 0 -18 5 -15 10 3 6 10 10 15 10 5 0 12 -4 15
-10z"/>
<path d="M2240 4239 c0 -21 5 -39 10 -39 6 0 10 13 10 29 0 28 15 49 27 38 3
-4 9 -21 14 -39 8 -33 8 -33 6 7 -2 38 -4 40 -34 42 -32 1 -33 0 -33 -38z"/>
<path d="M670 4240 c0 -6 57 -10 150 -10 93 0 150 4 150 10 0 6 -57 10 -150
10 -93 0 -150 -4 -150 -10z"/>
<path d="M2690 4180 c0 -22 5 -40 10 -40 6 0 10 18 10 40 0 22 -4 40 -10 40
-5 0 -10 -18 -10 -40z"/>
<path d="M2690 4070 c0 -22 5 -40 10 -40 6 0 10 18 10 40 0 22 -4 40 -10 40
-5 0 -10 -18 -10 -40z"/>
<path d="M2690 3960 c0 -22 5 -40 10 -40 6 0 10 18 10 40 0 22 -4 40 -10 40
-5 0 -10 -18 -10 -40z"/>
<path d="M2690 3850 c0 -22 5 -40 10 -40 6 0 10 18 10 40 0 22 -4 40 -10 40
-5 0 -10 -18 -10 -40z"/>
<path d="M2690 3740 c0 -22 5 -40 10 -40 6 0 10 18 10 40 0 22 -4 40 -10 40
-5 0 -10 -18 -10 -40z"/>
<path d="M2690 3630 c0 -22 5 -40 10 -40 6 0 10 18 10 40 0 22 -4 40 -10 40
-5 0 -10 -18 -10 -40z"/>
<path d="M2690 3520 c0 -22 5 -40 10 -40 6 0 10 18 10 40 0 22 -4 40 -10 40
-5 0 -10 -18 -10 -40z"/>
<path d="M2690 3410 c0 -22 5 -40 10 -40 6 0 10 18 10 40 0 22 -4 40 -10 40
-5 0 -10 -18 -10 -40z"/>
<path d="M2690 3300 c0 -22 5 -40 10 -40 6 0 10 18 10 40 0 22 -4 40 -10 40
-5 0 -10 -18 -10 -40z"/>
<path d="M2690 3190 c0 -22 5 -40 10 -40 6 0 10 18 10 40 0 22 -4 40 -10 40
-5 0 -10 -18 -10 -40z"/>
<path d="M2690 3080 c0 -22 5 -40 10 -40 6 0 10 18 10 40 0 22 -4 40 -10 40
-5 0 -10 -18 -10 -40z"/>
<path d="M2690 2970 c0 -22 5 -40 10 -40 6 0 10 18 10 40 0 22 -4 40 -10 40
-5 0 -10 -18 -10 -40z"/>
<path d="M1915 2883 c-39 -39 -97 -166 -140 -308 -20 -66 -83 -309 -141 -540
-170 -679 -233 -885 -329 -1080 -117 -237 -223 -317 -463 -350 l-107 -14 86 4
c279 15 419 145 566 524 61 160 114 348 253 899 119 475 179 681 225 772 89
176 161 145 256 -112 34 -92 117 -398 180 -658 l42 -176 -132 -262 c-72 -144
-157 -306 -188 -360 -253 -439 -452 -579 -873 -612 l-95 -7 93 -2 c181 -2 375
54 509 148 182 128 304 304 555 796 76 150 139 263 142 255 3 -8 25 -94 50
-190 51 -200 98 -353 152 -496 36 -98 112 -259 119 -253 2 2 -19 49 -46 104
-60 123 -150 394 -220 663 l-53 202 24 43 c98 178 208 304 283 322 23 6 27 4
27 -14 0 -12 5 -21 10 -21 6 0 10 9 10 20 0 28 28 25 82 -9 96 -61 172 -176
365 -554 81 -159 149 -283 151 -278 5 15 -252 516 -322 629 -73 117 -152 203
-208 226 -24 10 -51 22 -62 28 -12 6 -22 6 -29 -1 -6 -6 -18 -11 -27 -11 -31
0 -109 -61 -159 -123 -27 -34 -71 -100 -99 -146 -45 -74 -52 -81 -57 -60 -185
780 -276 1029 -375 1029 -16 0 -38 -11 -55 -27z"/>
<path d="M2690 2860 c0 -22 5 -40 10 -40 6 0 10 18 10 40 0 22 -4 40 -10 40
-5 0 -10 -18 -10 -40z"/>
<path d="M2690 2750 c0 -22 5 -40 10 -40 6 0 10 18 10 40 0 22 -4 40 -10 40
-5 0 -10 -18 -10 -40z"/>
<path d="M2690 2640 c0 -22 5 -40 10 -40 6 0 10 18 10 40 0 22 -4 40 -10 40
-5 0 -10 -18 -10 -40z"/>
<path d="M2690 2530 c0 -22 5 -40 10 -40 6 0 10 18 10 40 0 22 -4 40 -10 40
-5 0 -10 -18 -10 -40z"/>
<path d="M2690 2415 c0 -19 5 -35 10 -35 6 0 10 16 10 35 0 19 -4 35 -10 35
-5 0 -10 -16 -10 -35z"/>
<path d="M2690 2305 c0 -19 5 -35 10 -35 6 0 10 16 10 35 0 19 -4 35 -10 35
-5 0 -10 -16 -10 -35z"/>
<path d="M2690 2085 c0 -19 5 -35 10 -35 6 0 10 16 10 35 0 19 -4 35 -10 35
-5 0 -10 -16 -10 -35z"/>
<path d="M2690 1970 c0 -22 5 -40 10 -40 6 0 10 18 10 40 0 22 -4 40 -10 40
-5 0 -10 -18 -10 -40z"/>
<path d="M2690 1860 c0 -22 5 -40 10 -40 6 0 10 18 10 40 0 22 -4 40 -10 40
-5 0 -10 -18 -10 -40z"/>
<path d="M2690 1750 c0 -22 5 -40 10 -40 6 0 10 18 10 40 0 22 -4 40 -10 40
-5 0 -10 -18 -10 -40z"/>
<path d="M2690 1640 c0 -22 5 -40 10 -40 6 0 10 18 10 40 0 22 -4 40 -10 40
-5 0 -10 -18 -10 -40z"/>
<path d="M2690 1530 c0 -22 5 -40 10 -40 6 0 10 18 10 40 0 22 -4 40 -10 40
-5 0 -10 -18 -10 -40z"/>
<path d="M2690 1420 c0 -22 5 -40 10 -40 6 0 10 18 10 40 0 22 -4 40 -10 40
-5 0 -10 -18 -10 -40z"/>
<path d="M2690 1310 c0 -22 5 -40 10 -40 6 0 10 18 10 40 0 22 -4 40 -10 40
-5 0 -10 -18 -10 -40z"/>
<path d="M3320 1303 c0 -3 30 -58 66 -121 207 -355 399 -512 697 -568 63 -11
3 -13 -483 -10 -487 2 -562 4 -613 19 -92 27 -158 66 -219 130 -55 56 -58 62
-58 108 0 55 -15 66 -22 17 -3 -20 1 -42 10 -55 9 -15 10 -23 3 -23 -6 0 -11
-17 -11 -40 0 -22 5 -40 10 -40 6 0 10 18 10 41 l0 41 45 -50 c58 -64 122
-105 210 -132 57 -18 110 -23 290 -30 287 -12 1405 -13 1405 -1 0 4 -98 11
-217 14 -321 8 -495 43 -641 128 -132 78 -322 303 -432 512 -31 59 -50 82 -50
60z"/>
<path d="M2690 1200 c0 -22 5 -40 10 -40 6 0 10 18 10 40 0 22 -4 40 -10 40
-5 0 -10 -18 -10 -40z"/>
<path d="M2690 1090 c0 -22 5 -40 10 -40 6 0 10 18 10 40 0 22 -4 40 -10 40
-5 0 -10 -18 -10 -40z"/>
<path d="M2690 980 c0 -22 5 -40 10 -40 6 0 10 18 10 40 0 22 -4 40 -10 40 -5
0 -10 -18 -10 -40z"/>
<path d="M2690 650 c0 -22 5 -40 10 -40 6 0 10 18 10 40 0 22 -4 40 -10 40 -5
0 -10 -18 -10 -40z"/>
<path d="M2690 540 c0 -22 5 -40 10 -40 6 0 10 18 10 40 0 22 -4 40 -10 40 -5
0 -10 -18 -10 -40z"/>
<path d="M166 4702 c-3 -6 2 -8 13 -5 31 8 35 -17 7 -46 -34 -35 -33 -41 7
-40 25 1 27 3 9 6 l-24 5 22 23 c12 13 20 31 18 42 -3 19 -42 30 -52 15z"/>
<path d="M302 4698 c-17 -17 -15 -63 4 -79 22 -18 48 0 52 35 6 45 -29 71 -56
44z m38 -18 c11 -21 -2 -60 -20 -60 -5 0 -12 9 -15 20 -7 23 2 60 15 60 5 0
14 -9 20 -20z"/>
<path d="M384 4685 c-10 -39 3 -75 26 -75 29 0 47 42 32 75 -7 15 -20 25 -32
25 -13 0 -22 -9 -26 -25z m41 -26 c0 -24 -5 -34 -15 -34 -16 0 -25 37 -16 62
10 26 31 8 31 -28z"/>
<path d="M250 4620 c0 -5 5 -10 10 -10 6 0 10 5 10 10 0 6 -4 10 -10 10 -5 0
-10 -4 -10 -10z"/>
<path d="M180 4189 c0 -5 5 -7 10 -4 6 4 10 -10 10 -34 0 -22 -5 -42 -12 -44
-7 -3 3 -5 22 -5 19 0 27 2 18 5 -14 3 -18 15 -18 49 0 32 -4 44 -15 44 -8 0
-15 -5 -15 -11z"/>
<path d="M313 4193 c32 -5 31 -3 12 -50 -8 -20 -13 -38 -10 -41 4 -4 45 81 45
94 0 2 -17 3 -37 3 -31 -2 -33 -3 -10 -6z"/>
<path d="M380 4181 c0 -13 8 -21 23 -23 14 -2 22 -10 22 -23 0 -14 -6 -20 -22
-19 -13 0 -23 -3 -23 -8 0 -15 49 -8 59 9 11 21 -3 53 -24 53 -24 0 -17 18 8
23 16 3 13 5 -10 6 -26 1 -33 -3 -33 -18z"/>
<path d="M250 4110 c0 -5 5 -10 10 -10 6 0 10 5 10 10 0 6 -4 10 -10 10 -5 0
-10 -4 -10 -10z"/>
<path d="M180 3679 c0 -5 5 -7 10 -4 6 4 10 -10 10 -34 0 -22 -5 -42 -12 -44
-7 -3 3 -5 22 -5 19 0 27 2 18 5 -14 3 -18 15 -18 49 0 32 -4 44 -15 44 -8 0
-15 -5 -15 -11z"/>
<path d="M300 3671 c0 -10 9 -21 20 -24 27 -7 25 -35 -2 -47 -23 -9 -23 -9 -2
-9 45 -2 57 55 14 66 -27 7 -25 21 3 26 19 4 18 4 -5 6 -21 1 -28 -4 -28 -18z"/>
<path d="M392 3678 c-26 -26 -8 -88 25 -88 23 0 38 46 25 75 -13 27 -31 32
-50 13z m33 -38 c0 -18 -5 -35 -12 -37 -15 -5 -26 31 -18 58 10 31 30 17 30
-21z"/>
<path d="M250 3600 c0 -5 5 -10 10 -10 6 0 10 5 10 10 0 6 -4 10 -10 10 -5 0
-10 -4 -10 -10z"/>
<path d="M180 3169 c0 -5 5 -7 10 -4 6 4 10 -10 10 -34 0 -22 -5 -42 -12 -44
-7 -3 3 -5 22 -5 19 0 27 2 18 5 -14 3 -18 15 -18 49 0 32 -4 44 -15 44 -8 0
-15 -5 -15 -11z"/>
<path d="M296 3172 c-3 -6 2 -8 14 -5 34 9 36 -24 4 -58 l-28 -29 40 1 c31 2
34 3 10 6 l-28 5 22 23 c12 13 20 31 18 42 -3 19 -42 30 -52 15z"/>
<path d="M380 3161 c0 -13 8 -21 23 -23 14 -2 22 -10 22 -23 0 -14 -6 -20 -22
-19 -13 0 -23 -3 -23 -8 0 -15 49 -8 59 9 11 21 -3 53 -24 53 -24 0 -17 18 8
23 16 3 13 5 -10 6 -26 1 -33 -3 -33 -18z"/>
<path d="M250 3090 c0 -5 5 -10 10 -10 6 0 10 5 10 10 0 6 -4 10 -10 10 -5 0
-10 -4 -10 -10z"/>
<path d="M180 2659 c0 -5 5 -7 10 -4 6 4 10 -10 10 -34 0 -22 -5 -42 -12 -44
-7 -3 3 -5 22 -5 19 0 27 2 18 5 -14 3 -18 15 -18 49 0 32 -4 44 -15 44 -8 0
-15 -5 -15 -11z"/>
<path d="M302 2658 c-17 -17 -15 -63 4 -79 22 -18 48 0 52 35 6 45 -29 71 -56
44z m43 -18 c7 -23 -2 -60 -15 -60 -18 0 -31 39 -20 60 6 11 15 20 20 20 5 0
12 -9 15 -20z"/>
<path d="M392 2658 c-26 -26 -8 -88 25 -88 23 0 38 46 25 75 -13 27 -31 32
-50 13z m33 -38 c0 -38 -20 -52 -30 -21 -8 27 3 63 18 58 7 -2 12 -19 12 -37z"/>
<path d="M250 2580 c0 -5 5 -10 10 -10 6 0 10 5 10 10 0 6 -4 10 -10 10 -5 0
-10 -4 -10 -10z"/>
<path d="M182 2148 c-26 -26 -8 -88 25 -88 23 0 38 46 25 75 -13 27 -31 32
-50 13z m33 -38 c0 -38 -20 -52 -30 -21 -8 27 3 63 18 58 7 -2 12 -19 12 -37z"/>
<path d="M313 2153 c32 -5 31 -1 11 -48 -8 -20 -13 -40 -10 -42 3 -3 10 5 15
18 34 87 35 79 -7 78 -30 -2 -32 -3 -9 -6z"/>
<path d="M380 2141 c0 -13 8 -21 23 -23 14 -2 22 -10 22 -23 0 -14 -6 -20 -22
-19 -13 0 -23 -3 -23 -8 0 -5 12 -8 28 -6 21 2 28 9 30 31 3 22 -1 30 -17 34
-28 7 -27 21 2 26 16 3 13 5 -10 6 -26 1 -33 -3 -33 -18z"/>
<path d="M250 2070 c0 -5 5 -10 10 -10 6 0 10 5 10 10 0 6 -4 10 -10 10 -5 0
-10 -4 -10 -10z"/>
<path d="M182 1638 c-26 -26 -8 -88 25 -88 23 0 38 46 25 75 -13 27 -31 32
-50 13z m33 -38 c0 -38 -20 -52 -30 -21 -8 27 3 63 18 58 7 -2 12 -19 12 -37z"/>
<path d="M300 1631 c0 -11 9 -21 21 -24 28 -8 21 -39 -11 -48 l-25 -7 26 -1
c49 -2 65 54 19 66 -27 7 -25 21 3 26 19 4 18 4 -5 6 -21 1 -28 -4 -28 -18z"/>
<path d="M384 1625 c-10 -39 3 -75 26 -75 29 0 47 42 32 75 -7 15 -20 25 -32
25 -13 0 -22 -9 -26 -25z m41 -26 c0 -24 -5 -34 -15 -34 -16 0 -25 37 -16 62
10 26 31 8 31 -28z"/>
<path d="M250 1560 c0 -5 5 -10 10 -10 6 0 10 5 10 10 0 6 -4 10 -10 10 -5 0
-10 -4 -10 -10z"/>
<path d="M182 1128 c-26 -26 -8 -88 25 -88 23 0 38 46 25 75 -13 27 -31 32
-50 13z m33 -38 c0 -18 -5 -35 -12 -37 -15 -5 -26 31 -18 58 10 31 30 17 30
-21z"/>
<path d="M296 1132 c-3 -5 4 -8 16 -8 31 1 32 -18 3 -53 l-27 -31 39 1 c31 2
33 3 9 6 l-28 5 22 23 c12 13 20 31 18 42 -3 19 -42 31 -52 15z"/>
<path d="M380 1121 c0 -13 8 -21 23 -23 14 -2 22 -10 22 -23 0 -14 -6 -20 -22
-19 -13 0 -23 -3 -23 -8 0 -5 12 -8 28 -6 21 2 28 9 30 31 3 22 -1 30 -17 34
-28 7 -27 21 2 26 16 3 13 5 -10 6 -26 1 -33 -3 -33 -18z"/>
<path d="M250 1050 c0 -5 5 -10 10 -10 6 0 10 5 10 10 0 6 -4 10 -10 10 -5 0
-10 -4 -10 -10z"/>
<path d="M182 628 c-26 -26 -8 -88 25 -88 23 0 38 46 25 75 -13 27 -31 32 -50
13z m33 -38 c0 -38 -20 -52 -30 -21 -8 27 3 63 18 58 7 -2 12 -19 12 -37z"/>
<path d="M302 628 c-17 -17 -15 -63 4 -79 22 -18 48 0 52 35 6 45 -29 71 -56
44z m38 -18 c11 -21 -2 -60 -20 -60 -13 0 -22 37 -15 60 3 11 10 20 15 20 5 0
14 -9 20 -20z"/>
<path d="M384 615 c-10 -39 3 -75 26 -75 12 0 25 10 32 25 15 33 -3 75 -32 75
-13 0 -22 -9 -26 -25z m41 -26 c0 -24 -5 -34 -15 -34 -16 0 -25 37 -16 62 10
26 31 8 31 -28z"/>
<path d="M250 550 c0 -5 5 -10 10 -10 6 0 10 5 10 10 0 6 -4 10 -10 10 -5 0
-10 -4 -10 -10z"/>
<path d="M710 271 c0 -5 8 -7 19 -4 30 8 33 -13 6 -45 -32 -39 -32 -42 8 -41
23 1 26 3 10 6 l-23 4 22 29 c11 16 18 36 15 44 -7 17 -57 23 -57 7z"/>
<path d="M844 266 c-3 -8 -4 -29 -2 -48 2 -25 8 -34 25 -36 29 -4 47 36 33 73
-10 27 -47 35 -56 11z m41 -37 c0 -24 -5 -34 -15 -34 -16 0 -25 37 -16 62 10
26 31 8 31 -28z"/>
<path d="M1195 270 c-4 -6 -1 -9 7 -8 8 2 14 -10 16 -34 2 -28 -1 -37 -15 -41
-10 -3 -2 -5 17 -5 19 0 29 2 23 5 -8 3 -13 23 -13 49 0 32 -4 44 -14 44 -8 0
-18 -5 -21 -10z"/>
<path d="M1320 261 c0 -13 8 -21 23 -23 14 -2 22 -10 22 -23 0 -14 -6 -20 -22
-19 -13 0 -23 -3 -23 -8 0 -5 12 -8 28 -6 21 2 28 9 30 31 3 22 -1 30 -17 34
-28 7 -27 21 2 26 16 3 13 5 -10 6 -26 1 -33 -3 -33 -18z"/>
<path d="M1685 270 c-4 -6 -1 -9 7 -8 8 2 14 -10 16 -34 2 -28 -1 -37 -15 -41
-10 -3 -2 -5 17 -5 19 0 29 2 23 5 -8 3 -13 23 -13 49 0 32 -4 44 -14 44 -8 0
-18 -5 -21 -10z"/>
<path d="M1814 255 c-10 -39 3 -75 26 -75 29 0 47 42 32 75 -7 15 -20 25 -32
25 -13 0 -22 -9 -26 -25z m41 -26 c0 -24 -5 -34 -15 -34 -16 0 -25 37 -16 62
10 26 31 8 31 -28z"/>
<path d="M2174 267 c-3 -8 -4 -30 -2 -49 2 -28 7 -33 28 -33 23 0 25 4 25 45
0 39 -3 45 -23 48 -13 2 -24 -3 -28 -11z m41 -38 c0 -24 -5 -34 -15 -34 -16 0
-25 37 -16 62 10 26 31 8 31 -28z"/>
<path d="M2300 261 c0 -13 8 -21 23 -23 31 -4 29 -40 -3 -50 -23 -6 -23 -7 5
-5 25 2 31 7 33 30 3 22 -1 30 -17 34 -28 7 -27 21 2 26 16 3 13 5 -10 6 -26
1 -33 -3 -33 -18z"/>
<path d="M2622 268 c-26 -26 -8 -88 25 -88 23 0 38 46 25 75 -13 27 -31 32
-50 13z m33 -38 c0 -18 -5 -35 -12 -37 -15 -5 -26 31 -18 58 10 31 30 17 30
-21z"/>
<path d="M2742 268 c-17 -17 -15 -63 4 -79 22 -18 48 0 52 35 6 45 -29 71 -56
44z m38 -18 c11 -21 -2 -60 -20 -60 -5 0 -12 9 -15 20 -7 23 2 60 15 60 5 0
14 -9 20 -20z"/>
<path d="M3112 268 c-26 -26 -8 -88 25 -88 23 0 38 46 25 75 -13 27 -31 32
-50 13z m33 -38 c0 -18 -5 -35 -12 -37 -15 -5 -26 31 -18 58 10 31 30 17 30
-21z"/>
<path d="M3230 261 c0 -11 9 -21 21 -24 28 -8 21 -39 -11 -48 l-25 -7 26 -1
c49 -2 65 54 19 66 -27 7 -25 21 3 26 19 4 18 4 -5 6 -21 1 -28 -4 -28 -18z"/>
<path d="M3590 269 c0 -5 5 -7 10 -4 6 4 10 -10 10 -34 0 -22 -5 -42 -12 -44
-7 -3 3 -5 22 -5 19 0 27 2 18 5 -14 3 -18 15 -18 49 0 32 -4 44 -15 44 -8 0
-15 -5 -15 -11z"/>
<path d="M3712 268 c-17 -17 -15 -63 4 -79 22 -18 48 0 52 35 6 45 -29 71 -56
44z m43 -18 c7 -23 -2 -60 -15 -60 -18 0 -31 39 -20 60 6 11 15 20 20 20 5 0
12 -9 15 -20z"/>
<path d="M4080 269 c0 -5 5 -7 10 -4 6 4 10 -10 10 -34 0 -22 -5 -42 -12 -44
-7 -3 3 -5 22 -5 19 0 27 2 18 5 -14 3 -18 15 -18 49 0 32 -4 44 -15 44 -8 0
-15 -5 -15 -11z"/>
<path d="M4200 261 c0 -10 9 -21 20 -24 27 -7 25 -35 -2 -47 -23 -9 -23 -9 -2
-9 45 -2 57 55 14 66 -27 7 -25 21 3 26 19 4 18 4 -5 6 -21 1 -28 -4 -28 -18z"/>
<path d="M4566 272 c-3 -6 2 -8 13 -5 31 8 35 -17 7 -46 -34 -35 -33 -41 7
-40 25 1 27 3 9 6 l-24 5 22 23 c12 13 20 31 18 42 -3 19 -42 30 -52 15z"/>
<path d="M4702 268 c-17 -17 -15 -63 4 -79 22 -18 48 0 52 35 6 45 -29 71 -56
44z m38 -18 c11 -21 -2 -60 -20 -60 -5 0 -12 9 -15 20 -7 23 2 60 15 60 5 0
14 -9 20 -20z"/>
<path d="M623 223 c15 -2 37 -2 50 0 12 2 0 4 -28 4 -27 0 -38 -2 -22 -4z"/>
<path d="M1103 223 c15 -2 37 -2 50 0 12 2 0 4 -28 4 -27 0 -38 -2 -22 -4z"/>
<path d="M1593 223 c15 -2 37 -2 50 0 12 2 0 4 -28 4 -27 0 -38 -2 -22 -4z"/>
<path d="M2083 223 c15 -2 37 -2 50 0 12 2 0 4 -28 4 -27 0 -38 -2 -22 -4z"/>
<path d="M2690 190 c0 -5 5 -10 10 -10 6 0 10 5 10 10 0 6 -4 10 -10 10 -5 0
-10 -4 -10 -10z"/>
<path d="M3180 190 c0 -5 5 -10 10 -10 6 0 10 5 10 10 0 6 -4 10 -10 10 -5 0
-10 -4 -10 -10z"/>
<path d="M3660 190 c0 -5 5 -10 10 -10 6 0 10 5 10 10 0 6 -4 10 -10 10 -5 0
-10 -4 -10 -10z"/>
<path d="M4150 190 c0 -5 5 -10 10 -10 6 0 10 5 10 10 0 6 -4 10 -10 10 -5 0
-10 -4 -10 -10z"/>
<path d="M4650 190 c0 -5 5 -10 10 -10 6 0 10 5 10 10 0 6 -4 10 -10 10 -5 0
-10 -4 -10 -10z"/>
</g>
</svg>
